# xmcd CD database file
#
# Track frame offsets:
#	150
#	19003
#	35653
#	51339
#	67046
#	84172
#	100739
#	117556
#	132745
#	147731
#	165914
#	182122
#	199721
#	215584
#	231667
#	249609
#	260816
#	276786
#	289171
#	303570
#
# Disc length: 4244 seconds
#
# Revision: 0
# Processed by: cddbd v1.5.2PL0 Copyright (c) Steve Scherf et al.
# Submitted via: CDex 1.70beta2
#
DISCID=41109214
DTITLE=Hildemaro - 100% Exitos
DYEAR=2007
DGENRE=Salsa
TTITLE0=Amaneci Contigo
TTITLE1=Como Nadie
TTITLE2=Amante Amiga
TTITLE3=Como Me Cuesta Vivir Sin Ti
TTITLE4=Hola
TTITLE5=La Primera Vez
TTITLE6=Tengo Para Darte
TTITLE7=Cuando No Estás
TTITLE8=Te Equivocaste
TTITLE9=Desde El Fondo De Mi Corazón
TTITLE10=Sin Tabú
TTITLE11=Yo Sin Ti
TTITLE12=Apago La Luz
TTITLE13=Poquito A Poco
TTITLE14=Cabalgaremos
TTITLE15=Necesito De Tu Amor
TTITLE16=Tú Y El
TTITLE17=Negra
TTITLE18=Quién Tiene Tu Amor
TTITLE19=Señora
EXTD=YEAR: 2007
EXTT0=
EXTT1=
EXTT2=
EXTT3=
EXTT4=
EXTT5=
EXTT6=
EXTT7=
EXTT8=
EXTT9=
EXTT10=
EXTT11=
EXTT12=
EXTT13=
EXTT14=
EXTT15=
EXTT16=
EXTT17=
EXTT18=
EXTT19=
PLAYORDER=
